<?xml version="1.0" encoding="utf-8"?>
<!-- Generator: Adobe Illustrator 26.1.0, SVG Export Plug-In . SVG Version: 6.00 Build 0)  -->
<svg version="1.1" id="Layer_1" width="159px" height="24px" xmlns="http://www.w3.org/2000/svg" xmlns:xlink="http://www.w3.org/1999/xlink" x="0px" y="0px"
	 viewBox="0 0 159 24" style="enable-background:new 0 0 159 24;" xml:space="preserve">
<style type="text/css">
	.st0{fill:#FFFFFF;}
	.st1{fill:#F05A22;}
</style>
<g>
	<g>
		<path class="st0" d="M90,16.2c-2.1,0-3.7-1.7-4-3.8v-0.7c0.1-2.1,1.9-3.8,4-3.8s4,1.9,4,4.1C93.9,14.4,92.1,16.2,90,16.2
			 M90.6,4.4c-1.7,0-3.3,0.7-4.6,1.7V4.8h-4.1v19H86v-6c1.2,1.1,2.9,1.7,4.6,1.7c4,0,7.3-3.4,7.3-7.7S94.6,4.4,90.6,4.4"/>
		<polygon class="st0" points="159,4.8 156,4.8 156,0.2 151.9,0.2 151.9,4.8 150,4.8 150,8.1 151.9,8.1 151.9,19.2 156,19.2 
			156,8.1 159,8.1 		"/>
		<g>
			<path class="st0" d="M128.4,12c0,2.2-1.7,4.1-4,4.1c-2.1,0-3.7-1.7-3.8-3.8v-0.7c0.1-2.1,1.9-3.8,3.8-3.8
				C126.7,7.9,128.4,9.7,128.4,12 M132.4,12c0-4.2-3.2-7.7-7.3-7.7c-1.7,0-3.3,0.7-4.6,1.7V0.2h-4.1v18.9h4.1v-1.3
				c1.2,1.1,2.9,1.7,4.6,1.7C129.2,19.6,132.4,16.2,132.4,12"/>
			<path class="st0" d="M103.3,11.7c0-2.1,2-4,4.1-4c2.2,0,3,1.6,3,1.6l-7.1,2.8C103.3,12.1,103.3,12,103.3,11.7 M104.5,15.1
				l10.2-4.1c-0.4-3.8-3.6-6.6-7.4-6.6c-4.2,0-7.8,3.4-7.8,7.7s3.6,7.7,7.9,7.7c2.9,0,5.6-1.2,6.7-2.5l-2.2-2.2
				C107.5,18.1,104.6,15.4,104.5,15.1"/>
			<path class="st0" d="M47.9,4.8v8.1c0,1.7-1.5,3.2-3.2,3.2s-3.2-1.5-3.2-3.2V4.8h-4v7.5l0,0c0,4,3.2,7.3,7.3,7.3
				c4,0,7.3-3.2,7.3-7.3V4.8H47.9z"/>
			<path class="st0" d="M72.1,16.2c-2.1,0-4-1.9-4-4.1S70,8,72.1,8s4,1.9,4,4.1S74.2,16.2,72.1,16.2 M72.1,4.4
				c-4.4,0-7.9,3.4-7.9,7.7s3.6,7.7,7.9,7.7c4.4,0,7.9-3.4,7.9-7.7C80,7.7,76.5,4.4,72.1,4.4"/>
			<path class="st0" d="M24.2,11.7c0-2.1,2-4,4.1-4c2.2,0,3,1.6,3,1.6l-7,2.9C24.2,12.1,24.2,12,24.2,11.7 M25.3,15.1L35.5,11
				c-0.4-3.8-3.6-6.6-7.5-6.6c-4.2,0-7.8,3.4-7.8,7.7s3.6,7.7,7.9,7.7c2.9,0,5.6-1.2,6.7-2.5l-2.2-2.2
				C28.4,17.9,25.5,15.4,25.3,15.1"/>
			<path class="st0" d="M137.8,11.7c0-2.1,2-4,4.1-4c2.2,0,3,1.6,3,1.6l-7,2.9C137.8,12.1,137.8,12,137.8,11.7 M139,15.1l10.2-4.1
				c-0.4-3.8-3.6-6.6-7.4-6.6c-4.2,0-7.8,3.4-7.8,7.7s3.6,7.7,7.9,7.7c2.9,0,5.6-1.2,6.7-2.5l-2.2-2.2
				C142.1,18.1,139.2,15.4,139,15.1"/>
			<path class="st0" d="M63.2,4.6c-3.2-0.5-9,0.5-9,6.6v8h4v-7c0-4.9,5-4.1,5-4.1V4.6z"/>
		</g>
	</g>
	<path class="st1" d="M0,12c0-5,4-9,9-9s9,4,9,9s-4,9-9,9C4.1,21,0,17,0,12"/>
</g>
</svg>
